# Blender v2.82 (sub 7) OBJ File: ''
# www.blender.org
mtllib Ballisa_Top.mtl
o ObjObject
v -0.100000 0.200000 -0.400000
v 0.100000 0.000000 -0.400000
v -0.100000 -0.000000 -0.400000
v 0.100000 0.200000 -0.400000
v -0.200000 0.200000 -0.200000
v -0.100000 0.100000 -0.200000
v -0.200000 0.100000 -0.200000
v -0.100000 0.200000 -0.200000
v 0.100000 0.200000 -0.200000
v 0.200000 0.100000 -0.200000
v 0.100000 0.100000 -0.200000
v 0.200000 0.200000 -0.200000
v -0.300000 0.200000 -0.100000
v -0.200000 0.100000 -0.100000
v -0.300000 0.100000 -0.100000
v -0.200000 0.200000 -0.100000
v 0.200000 0.200000 -0.100000
v 0.300000 0.100000 -0.100000
v 0.200000 0.100000 -0.100000
v 0.300000 0.200000 -0.100000
v -0.300000 0.100000 -0.000000
v -0.300000 -0.000000 -0.000000
v -0.400000 -0.000000 -0.000000
v 0.300000 0.100000 0.000000
v 0.400000 0.000000 0.000000
v 0.300000 0.000000 0.000000
v -0.400000 0.200000 -0.000000
v -0.300000 0.200000 -0.000000
v 0.300000 0.200000 0.000000
v 0.400000 0.200000 0.000000
v -0.300000 0.100000 0.100000
v -0.200000 -0.000000 0.100000
v -0.300000 -0.000000 0.100000
v -0.200000 0.100000 0.100000
v 0.200000 0.100000 0.100000
v 0.300000 0.000000 0.100000
v 0.200000 0.000000 0.100000
v 0.300000 0.100000 0.100000
v -0.200000 0.100000 0.200000
v -0.100000 -0.000000 0.200000
v -0.200000 -0.000000 0.200000
v -0.100000 0.100000 0.200000
v 0.100000 0.100000 0.200000
v 0.200000 0.000000 0.200000
v 0.100000 0.000000 0.200000
v 0.200000 0.100000 0.200000
v -0.100000 0.100000 -0.200000
v 0.100000 0.100000 -0.200000
v -0.100000 0.200000 -0.200000
v 0.100000 0.200000 -0.200000
v -0.200000 0.100000 -0.100000
v -0.100000 0.100000 -0.100000
v -0.200000 0.200000 -0.100000
v -0.100000 0.200000 -0.100000
v 0.100000 0.100000 -0.100000
v 0.200000 0.100000 -0.100000
v 0.100000 0.200000 -0.100000
v 0.200000 0.200000 -0.100000
v -0.400000 0.100000 0.100000
v -0.300000 0.100000 0.100000
v -0.400000 0.200000 0.100000
v -0.200000 0.100000 0.100000
v -0.300000 0.200000 0.100000
v -0.200000 0.200000 0.100000
v 0.200000 0.100000 0.100000
v 0.300000 0.100000 0.100000
v 0.200000 0.200000 0.100000
v 0.400000 0.100000 0.100000
v 0.300000 0.200000 0.100000
v 0.400000 0.200000 0.100000
v -0.400000 -0.000000 0.200000
v -0.300000 -0.000000 0.200000
v -0.400000 0.100000 0.200000
v -0.300000 0.100000 0.200000
v 0.300000 0.000000 0.200000
v 0.400000 0.000000 0.200000
v 0.300000 0.100000 0.200000
v 0.400000 0.100000 0.200000
v -0.300000 -0.000000 0.300000
v -0.100000 -0.000000 0.300000
v -0.300000 0.100000 0.300000
v -0.100000 0.100000 0.300000
v 0.100000 0.000000 0.300000
v 0.300000 0.000000 0.300000
v 0.100000 0.100000 0.300000
v 0.300000 0.100000 0.300000
v -0.100000 -0.000000 0.400000
v 0.100000 0.000000 0.400000
v -0.100000 0.100000 0.400000
v 0.100000 0.100000 0.400000
v -0.400000 0.100000 0.100000
v -0.400000 0.200000 -0.000000
v -0.400000 -0.000000 -0.000000
v -0.400000 0.200000 0.100000
v -0.400000 -0.000000 0.200000
v -0.400000 0.100000 0.200000
v -0.300000 0.100000 -0.000000
v -0.300000 0.200000 -0.100000
v -0.300000 0.100000 -0.100000
v -0.300000 0.200000 -0.000000
v -0.300000 -0.000000 0.300000
v -0.300000 0.100000 0.200000
v -0.300000 -0.000000 0.200000
v -0.300000 0.100000 0.300000
v -0.200000 0.100000 -0.100000
v -0.200000 0.200000 -0.200000
v -0.200000 0.100000 -0.200000
v -0.200000 0.200000 -0.100000
v -0.100000 0.100000 -0.300000
v -0.100000 0.200000 -0.400000
v -0.100000 -0.000000 -0.400000
v -0.100000 0.200000 -0.300000
v -0.100000 0.100000 -0.200000
v -0.100000 0.200000 -0.200000
v -0.100000 0.100000 -0.100000
v -0.100000 -0.000000 0.200000
v -0.100000 0.100000 0.200000
v -0.100000 -0.000000 0.400000
v -0.100000 0.100000 0.300000
v -0.100000 -0.000000 0.300000
v -0.100000 0.100000 0.400000
v 0.100000 0.100000 -0.100000
v 0.100000 0.200000 -0.200000
v 0.100000 0.100000 -0.200000
v 0.100000 0.200000 -0.100000
v 0.200000 0.100000 0.100000
v 0.200000 0.200000 -0.100000
v 0.200000 0.100000 -0.100000
v 0.200000 0.200000 0.100000
v 0.200000 0.000000 0.200000
v 0.200000 0.000000 0.100000
v 0.200000 0.100000 0.200000
v 0.300000 0.000000 0.100000
v 0.300000 0.100000 0.000000
v 0.300000 0.000000 0.000000
v 0.300000 0.100000 0.100000
v -0.300000 -0.000000 -0.000000
v -0.300000 0.100000 -0.000000
v -0.300000 -0.000000 0.100000
v -0.300000 0.100000 0.100000
v -0.200000 0.100000 -0.100000
v -0.200000 0.200000 -0.100000
v -0.200000 0.100000 0.100000
v -0.200000 0.200000 0.100000
v -0.200000 -0.000000 0.100000
v -0.200000 -0.000000 0.200000
v -0.200000 0.100000 0.200000
v -0.100000 0.100000 -0.200000
v -0.100000 0.200000 -0.200000
v -0.100000 0.100000 -0.100000
v -0.100000 0.200000 -0.100000
v 0.100000 0.000000 -0.400000
v 0.100000 0.200000 -0.400000
v 0.100000 0.100000 -0.300000
v 0.100000 0.200000 -0.300000
v 0.100000 0.100000 -0.200000
v 0.100000 0.200000 -0.200000
v 0.100000 0.100000 -0.100000
v 0.100000 0.000000 0.200000
v 0.100000 0.100000 0.200000
v 0.100000 0.000000 0.300000
v 0.100000 0.100000 0.300000
v 0.100000 0.000000 0.400000
v 0.100000 0.100000 0.400000
v 0.200000 0.100000 -0.200000
v 0.200000 0.200000 -0.200000
v 0.200000 0.100000 -0.100000
v 0.200000 0.200000 -0.100000
v 0.300000 0.100000 -0.100000
v 0.300000 0.200000 -0.100000
v 0.300000 0.100000 0.000000
v 0.300000 0.200000 0.000000
v 0.300000 0.000000 0.200000
v 0.300000 0.100000 0.200000
v 0.300000 0.000000 0.300000
v 0.300000 0.100000 0.300000
v 0.400000 0.000000 0.000000
v 0.400000 0.200000 0.000000
v 0.400000 0.100000 0.100000
v 0.400000 0.200000 0.100000
v 0.400000 0.000000 0.200000
v 0.400000 0.100000 0.200000
v -0.300000 -0.000000 -0.000000
v -0.400000 -0.000000 0.200000
v -0.400000 -0.000000 -0.000000
v -0.300000 -0.000000 0.100000
v -0.300000 -0.000000 0.200000
v -0.200000 -0.000000 0.100000
v -0.300000 -0.000000 0.300000
v -0.200000 -0.000000 0.200000
v -0.100000 -0.000000 0.200000
v -0.100000 -0.000000 0.300000
v 0.100000 0.000000 -0.400000
v -0.100000 -0.000000 -0.400000
v -0.100000 -0.000000 0.400000
v 0.100000 0.000000 0.200000
v 0.100000 0.000000 0.300000
v 0.100000 0.000000 0.400000
v 0.200000 0.000000 0.200000
v 0.300000 0.000000 0.100000
v 0.200000 0.000000 0.100000
v 0.300000 0.000000 0.200000
v 0.300000 0.000000 0.300000
v 0.400000 0.000000 0.000000
v 0.300000 0.000000 0.000000
v 0.400000 0.000000 0.200000
v -0.200000 0.100000 -0.100000
v -0.300000 0.100000 -0.000000
v -0.300000 0.100000 -0.100000
v -0.300000 0.100000 0.100000
v -0.200000 0.100000 0.100000
v -0.100000 0.100000 -0.200000
v -0.200000 0.100000 -0.200000
v -0.100000 0.100000 -0.100000
v 0.200000 0.100000 -0.200000
v 0.100000 0.100000 -0.100000
v 0.100000 0.100000 -0.200000
v 0.200000 0.100000 -0.100000
v 0.300000 0.100000 -0.100000
v 0.200000 0.100000 0.100000
v 0.300000 0.100000 0.000000
v 0.300000 0.100000 0.100000
v -0.400000 0.100000 0.100000
v -0.400000 0.100000 0.200000
v -0.300000 0.100000 0.100000
v -0.300000 0.100000 0.200000
v -0.200000 0.100000 0.100000
v -0.300000 0.100000 0.300000
v -0.200000 0.100000 0.200000
v -0.100000 0.100000 0.200000
v -0.100000 0.100000 0.300000
v -0.100000 0.100000 -0.200000
v -0.100000 0.100000 -0.100000
v 0.100000 0.100000 -0.200000
v -0.100000 0.100000 0.400000
v 0.100000 0.100000 -0.100000
v 0.100000 0.100000 0.200000
v 0.100000 0.100000 0.300000
v 0.100000 0.100000 0.400000
v 0.200000 0.100000 0.200000
v 0.200000 0.100000 0.100000
v 0.300000 0.100000 0.100000
v 0.300000 0.100000 0.200000
v 0.300000 0.100000 0.300000
v 0.400000 0.100000 0.100000
v 0.400000 0.100000 0.200000
v -0.400000 0.200000 -0.000000
v -0.400000 0.200000 0.100000
v -0.300000 0.200000 -0.000000
v -0.300000 0.200000 0.100000
v -0.300000 0.200000 -0.100000
v -0.200000 0.200000 -0.100000
v -0.200000 0.200000 0.100000
v -0.200000 0.200000 -0.200000
v -0.100000 0.200000 -0.200000
v -0.100000 0.200000 -0.100000
v -0.100000 0.200000 -0.400000
v -0.100000 0.200000 -0.300000
v 0.100000 0.200000 -0.400000
v 0.100000 0.200000 -0.300000
v 0.100000 0.200000 -0.200000
v 0.100000 0.200000 -0.100000
v 0.200000 0.200000 -0.200000
v 0.200000 0.200000 -0.100000
v 0.200000 0.200000 0.100000
v 0.300000 0.200000 -0.100000
v 0.300000 0.200000 0.000000
v 0.300000 0.200000 0.100000
v 0.400000 0.200000 0.000000
v 0.400000 0.200000 0.100000
vt 0.373047 0.500000
vt 0.373047 0.500000
vt 0.373047 0.500000
vt 0.373047 0.500000
vt 0.974609 0.500000
vt 0.974609 0.500000
vt 0.974609 0.500000
vt 0.974609 0.500000
vt 0.974609 0.500000
vt 0.974609 0.500000
vt 0.974609 0.500000
vt 0.974609 0.500000
vt 0.974609 0.500000
vt 0.974609 0.500000
vt 0.974609 0.500000
vt 0.974609 0.500000
vt 0.974609 0.500000
vt 0.974609 0.500000
vt 0.974609 0.500000
vt 0.974609 0.500000
vt 0.373047 0.500000
vt 0.373047 0.500000
vt 0.373047 0.500000
vt 0.373047 0.500000
vt 0.373047 0.500000
vt 0.373047 0.500000
vt 0.373047 0.500000
vt 0.373047 0.500000
vt 0.373047 0.500000
vt 0.373047 0.500000
vt 0.373047 0.500000
vt 0.373047 0.500000
vt 0.373047 0.500000
vt 0.373047 0.500000
vt 0.373047 0.500000
vt 0.373047 0.500000
vt 0.373047 0.500000
vt 0.373047 0.500000
vt 0.373047 0.500000
vt 0.373047 0.500000
vt 0.373047 0.500000
vt 0.373047 0.500000
vt 0.373047 0.500000
vt 0.373047 0.500000
vt 0.373047 0.500000
vt 0.373047 0.500000
vt 0.974609 0.500000
vt 0.974609 0.500000
vt 0.974609 0.500000
vt 0.974609 0.500000
vt 0.974609 0.500000
vt 0.974609 0.500000
vt 0.974609 0.500000
vt 0.974609 0.500000
vt 0.974609 0.500000
vt 0.974609 0.500000
vt 0.974609 0.500000
vt 0.974609 0.500000
vt 0.373047 0.500000
vt 0.373047 0.500000
vt 0.373047 0.500000
vt 0.974609 0.500000
vt 0.974609 0.500000
vt 0.974609 0.500000
vt 0.373047 0.500000
vt 0.974609 0.500000
vt 0.974609 0.500000
vt 0.974609 0.500000
vt 0.974609 0.500000
vt 0.373047 0.500000
vt 0.373047 0.500000
vt 0.373047 0.500000
vt 0.974609 0.500000
vt 0.373047 0.500000
vt 0.373047 0.500000
vt 0.373047 0.500000
vt 0.373047 0.500000
vt 0.373047 0.500000
vt 0.373047 0.500000
vt 0.373047 0.500000
vt 0.373047 0.500000
vt 0.373047 0.500000
vt 0.373047 0.500000
vt 0.373047 0.500000
vt 0.373047 0.500000
vt 0.373047 0.500000
vt 0.373047 0.500000
vt 0.373047 0.500000
vt 0.373047 0.500000
vt 0.373047 0.500000
vt 0.373047 0.500000
vt 0.373047 0.500000
vt 0.373047 0.500000
vt 0.373047 0.500000
vt 0.373047 0.500000
vt 0.373047 0.500000
vt 0.373047 0.500000
vt 0.373047 0.500000
vt 0.373047 0.500000
vt 0.373047 0.500000
vt 0.974609 0.500000
vt 0.974609 0.500000
vt 0.974609 0.500000
vt 0.974609 0.500000
vt 0.373047 0.500000
vt 0.373047 0.500000
vt 0.373047 0.500000
vt 0.373047 0.500000
vt 0.974609 0.500000
vt 0.974609 0.500000
vt 0.974609 0.500000
vt 0.974609 0.500000
vt 0.373047 0.500000
vt 0.373047 0.500000
vt 0.373047 0.500000
vt 0.373047 0.500000
vt 0.373047 0.500000
vt 0.974609 0.500000
vt 0.974609 0.500000
vt 0.974609 0.500000
vt 0.974609 0.500000
vt 0.373047 0.500000
vt 0.373047 0.500000
vt 0.373047 0.500000
vt 0.373047 0.500000
vt 0.373047 0.500000
vt 0.373047 0.500000
vt 0.373047 0.500000
vt 0.974609 0.500000
vt 0.974609 0.500000
vt 0.974609 0.500000
vt 0.974609 0.500000
vt 0.974609 0.500000
vt 0.974609 0.500000
vt 0.974609 0.500000
vt 0.974609 0.500000
vt 0.373047 0.500000
vt 0.373047 0.500000
vt 0.373047 0.500000
vt 0.373047 0.500000
vt 0.373047 0.500000
vt 0.373047 0.500000
vt 0.373047 0.500000
vt 0.373047 0.500000
vt 0.373047 0.500000
vt 0.373047 0.500000
vt 0.373047 0.500000
vt 0.373047 0.500000
vt 0.974609 0.500000
vt 0.974609 0.500000
vt 0.974609 0.500000
vt 0.974609 0.500000
vt 0.373047 0.500000
vt 0.373047 0.500000
vt 0.373047 0.500000
vt 0.373047 0.500000
vt 0.974609 0.500000
vt 0.974609 0.500000
vt 0.974609 0.500000
vt 0.974609 0.500000
vt 0.373047 0.500000
vt 0.373047 0.500000
vt 0.373047 0.500000
vt 0.373047 0.500000
vt 0.373047 0.500000
vt 0.974609 0.500000
vt 0.974609 0.500000
vt 0.974609 0.500000
vt 0.974609 0.500000
vt 0.373047 0.500000
vt 0.373047 0.500000
vt 0.373047 0.500000
vt 0.373047 0.500000
vt 0.373047 0.500000
vt 0.373047 0.500000
vt 0.373047 0.500000
vt 0.974609 0.500000
vt 0.974609 0.500000
vt 0.974609 0.500000
vt 0.974609 0.500000
vt 0.974609 0.500000
vt 0.974609 0.500000
vt 0.974609 0.500000
vt 0.974609 0.500000
vt 0.373047 0.500000
vt 0.373047 0.500000
vt 0.373047 0.500000
vt 0.373047 0.500000
vt 0.373047 0.500000
vt 0.373047 0.500000
vt 0.373047 0.500000
vt 0.373047 0.500000
vt 0.373047 0.500000
vt 0.373047 0.500000
vt 0.373047 0.500000
vt 0.373047 0.500000
vt 0.373047 0.500000
vt 0.373047 0.500000
vt 0.373047 0.500000
vt 0.373047 0.500000
vt 0.373047 0.500000
vt 0.373047 0.500000
vt 0.373047 0.500000
vt 0.373047 0.500000
vt 0.373047 0.500000
vt 0.373047 0.500000
vt 0.373047 0.500000
vt 0.373047 0.500000
vt 0.373047 0.500000
vt 0.373047 0.500000
vt 0.373047 0.500000
vt 0.373047 0.500000
vt 0.373047 0.500000
vt 0.373047 0.500000
vt 0.373047 0.500000
vt 0.373047 0.500000
vt 0.373047 0.500000
vt 0.373047 0.500000
vt 0.974609 0.500000
vt 0.974609 0.500000
vt 0.974609 0.500000
vt 0.974609 0.500000
vt 0.974609 0.500000
vt 0.974609 0.500000
vt 0.974609 0.500000
vt 0.974609 0.500000
vt 0.974609 0.500000
vt 0.974609 0.500000
vt 0.974609 0.500000
vt 0.974609 0.500000
vt 0.974609 0.500000
vt 0.974609 0.500000
vt 0.974609 0.500000
vt 0.974609 0.500000
vt 0.373047 0.500000
vt 0.373047 0.500000
vt 0.373047 0.500000
vt 0.373047 0.500000
vt 0.373047 0.500000
vt 0.373047 0.500000
vt 0.373047 0.500000
vt 0.373047 0.500000
vt 0.373047 0.500000
vt 0.373047 0.500000
vt 0.373047 0.500000
vt 0.373047 0.500000
vt 0.373047 0.500000
vt 0.373047 0.500000
vt 0.373047 0.500000
vt 0.373047 0.500000
vt 0.373047 0.500000
vt 0.373047 0.500000
vt 0.373047 0.500000
vt 0.373047 0.500000
vt 0.373047 0.500000
vt 0.373047 0.500000
vt 0.373047 0.500000
vt 0.373047 0.500000
vt 0.373047 0.500000
vt 0.373047 0.500000
vt 0.373047 0.500000
vt 0.373047 0.500000
vt 0.974609 0.500000
vt 0.974609 0.500000
vt 0.974609 0.500000
vt 0.974609 0.500000
vt 0.974609 0.500000
vt 0.974609 0.500000
vt 0.974609 0.500000
vt 0.974609 0.500000
vt 0.373047 0.500000
vt 0.373047 0.500000
vt 0.373047 0.500000
vt 0.974609 0.500000
vt 0.974609 0.500000
vt 0.373047 0.500000
vt 0.974609 0.500000
vt 0.974609 0.500000
vt 0.974609 0.500000
vt 0.974609 0.500000
vt 0.974609 0.500000
vt 0.974609 0.500000
vt 0.974609 0.500000
vt 0.974609 0.500000
vt 0.373047 0.500000
vt 0.373047 0.500000
vt 0.373047 0.500000
vt 0.373047 0.500000
vn -0.0000 0.0000 -1.0000
vn 0.0000 0.0000 1.0000
vn -1.0000 0.0000 0.0000
vn 1.0000 0.0000 0.0000
vn 0.0000 -1.0000 0.0000
vn 0.0000 1.0000 0.0000
usemtl palette
s 1
f 1/1/1 2/2/1 3/3/1
f 4/4/1 2/2/1 1/1/1
f 5/5/1 6/6/1 7/7/1
f 8/8/1 6/6/1 5/5/1
f 9/9/1 10/10/1 11/11/1
f 12/12/1 10/10/1 9/9/1
f 13/13/1 14/14/1 15/15/1
f 16/16/1 14/14/1 13/13/1
f 17/17/1 18/18/1 19/19/1
f 20/20/1 18/18/1 17/17/1
f 21/21/1 22/22/1 23/23/1
f 24/24/1 25/25/1 26/26/1
f 27/27/1 21/21/1 23/23/1
f 28/28/1 21/21/1 27/27/1
f 29/29/1 25/25/1 24/24/1
f 30/30/1 25/25/1 29/29/1
f 31/31/1 32/32/1 33/33/1
f 34/34/1 32/32/1 31/31/1
f 35/35/1 36/36/1 37/37/1
f 38/38/1 36/36/1 35/35/1
f 39/39/1 40/40/1 41/41/1
f 42/42/1 40/40/1 39/39/1
f 43/43/1 44/44/1 45/45/1
f 46/46/1 44/44/1 43/43/1
f 47/47/2 48/48/2 49/49/2
f 49/49/2 48/48/2 50/50/2
f 51/51/2 52/52/2 53/53/2
f 53/53/2 52/52/2 54/54/2
f 55/55/2 56/56/2 57/57/2
f 57/57/2 56/56/2 58/58/2
f 59/59/2 60/60/2 61/61/2
f 60/62/2 62/63/2 63/64/2
f 61/61/2 60/60/2 63/65/2
f 63/64/2 62/63/2 64/66/2
f 65/67/2 66/68/2 67/69/2
f 66/70/2 68/71/2 69/72/2
f 67/69/2 66/68/2 69/73/2
f 69/72/2 68/71/2 70/74/2
f 71/75/2 72/76/2 73/77/2
f 73/77/2 72/76/2 74/78/2
f 75/79/2 76/80/2 77/81/2
f 77/81/2 76/80/2 78/82/2
f 79/83/2 80/84/2 81/85/2
f 81/85/2 80/84/2 82/86/2
f 83/87/2 84/88/2 85/89/2
f 85/89/2 84/88/2 86/90/2
f 87/91/2 88/92/2 89/93/2
f 89/93/2 88/92/2 90/94/2
f 91/95/3 92/96/3 93/97/3
f 94/98/3 92/96/3 91/95/3
f 95/99/3 91/95/3 93/97/3
f 96/100/3 91/95/3 95/99/3
f 97/101/3 98/102/3 99/103/3
f 100/104/3 98/102/3 97/101/3
f 101/105/3 102/106/3 103/107/3
f 104/108/3 102/106/3 101/105/3
f 105/109/3 106/110/3 107/111/3
f 108/112/3 106/110/3 105/109/3
f 109/113/3 110/114/3 111/115/3
f 112/116/3 110/114/3 109/113/3
f 113/117/3 109/113/3 111/115/3
f 113/118/3 112/119/3 109/120/3
f 114/121/3 112/119/3 113/118/3
f 115/122/3 113/117/3 111/115/3
f 116/123/3 115/122/3 111/115/3
f 117/124/3 115/122/3 116/123/3
f 118/125/3 119/126/3 120/127/3
f 121/128/3 119/126/3 118/125/3
f 122/129/3 123/130/3 124/131/3
f 125/132/3 123/130/3 122/129/3
f 126/133/3 127/134/3 128/135/3
f 129/136/3 127/134/3 126/133/3
f 130/137/3 126/138/3 131/139/3
f 132/140/3 126/138/3 130/137/3
f 133/141/3 134/142/3 135/143/3
f 136/144/3 134/142/3 133/141/3
f 137/145/4 138/146/4 139/147/4
f 139/147/4 138/146/4 140/148/4
f 141/149/4 142/150/4 143/151/4
f 143/151/4 142/150/4 144/152/4
f 145/153/4 143/154/4 146/155/4
f 146/155/4 143/154/4 147/156/4
f 148/157/4 149/158/4 150/159/4
f 150/159/4 149/158/4 151/160/4
f 152/161/4 153/162/4 154/163/4
f 154/163/4 153/162/4 155/164/4
f 152/161/4 154/163/4 156/165/4
f 154/166/4 155/167/4 156/168/4
f 156/168/4 155/167/4 157/169/4
f 152/161/4 156/165/4 158/170/4
f 152/161/4 158/170/4 159/171/4
f 159/171/4 158/170/4 160/172/4
f 161/173/4 162/174/4 163/175/4
f 163/175/4 162/174/4 164/176/4
f 165/177/4 166/178/4 167/179/4
f 167/179/4 166/178/4 168/180/4
f 169/181/4 170/182/4 171/183/4
f 171/183/4 170/182/4 172/184/4
f 173/185/4 174/186/4 175/187/4
f 175/187/4 174/186/4 176/188/4
f 177/189/4 178/190/4 179/191/4
f 179/191/4 178/190/4 180/192/4
f 177/189/4 179/191/4 181/193/4
f 181/193/4 179/191/4 182/194/4
f 183/195/5 184/196/5 185/197/5
f 186/198/5 184/196/5 183/195/5
f 187/199/5 184/196/5 186/198/5
f 188/200/5 189/201/5 187/199/5
f 188/200/5 187/199/5 186/198/5
f 190/202/5 189/201/5 188/200/5
f 191/203/5 189/201/5 190/202/5
f 192/204/5 189/201/5 191/203/5
f 193/205/5 191/203/5 194/206/5
f 193/205/5 195/207/5 192/204/5
f 193/205/5 192/204/5 191/203/5
f 196/208/5 195/207/5 193/205/5
f 197/209/5 195/207/5 196/208/5
f 198/210/5 195/207/5 197/209/5
f 199/211/5 197/209/5 196/208/5
f 200/212/5 199/211/5 201/213/5
f 202/214/5 197/209/5 199/211/5
f 202/214/5 199/211/5 200/212/5
f 203/215/5 197/209/5 202/214/5
f 204/216/5 200/212/5 205/217/5
f 204/216/5 202/214/5 200/212/5
f 206/218/5 202/214/5 204/216/5
f 207/219/5 208/220/5 209/221/5
f 207/219/5 210/222/5 208/220/5
f 211/223/5 210/222/5 207/219/5
f 212/224/5 207/219/5 213/225/5
f 214/226/5 207/219/5 212/224/5
f 215/227/5 216/228/5 217/229/5
f 218/230/5 216/228/5 215/227/5
f 219/231/5 220/232/5 218/230/5
f 221/233/5 220/232/5 219/231/5
f 222/234/5 220/232/5 221/233/5
f 223/235/6 224/236/6 225/237/6
f 225/237/6 224/236/6 226/238/6
f 225/237/6 226/238/6 227/239/6
f 226/238/6 228/240/6 227/239/6
f 227/239/6 228/240/6 229/241/6
f 229/241/6 228/240/6 230/242/6
f 230/242/6 228/240/6 231/243/6
f 232/244/6 233/245/6 234/246/6
f 231/243/6 235/247/6 234/246/6
f 230/242/6 231/243/6 234/246/6
f 233/245/6 230/242/6 234/246/6
f 234/246/6 235/247/6 236/248/6
f 236/248/6 235/247/6 237/249/6
f 237/249/6 235/247/6 238/250/6
f 238/250/6 235/247/6 239/251/6
f 237/249/6 238/250/6 240/252/6
f 241/253/6 240/252/6 242/254/6
f 240/252/6 238/250/6 243/255/6
f 242/254/6 240/252/6 243/255/6
f 243/255/6 238/250/6 244/256/6
f 242/254/6 243/255/6 245/257/6
f 245/257/6 243/255/6 246/258/6
f 247/259/6 248/260/6 249/261/6
f 249/261/6 248/260/6 250/262/6
f 251/263/6 249/264/6 252/265/6
f 249/264/6 250/266/6 252/265/6
f 252/265/6 250/266/6 253/267/6
f 254/268/6 252/265/6 255/269/6
f 255/269/6 252/265/6 256/270/6
f 257/271/6 258/272/6 259/273/6
f 258/274/6 255/269/6 260/275/6
f 259/273/6 258/272/6 260/276/6
f 260/275/6 255/269/6 261/277/6
f 261/277/6 262/278/6 263/279/6
f 263/279/6 262/278/6 264/280/6
f 264/280/6 265/281/6 266/282/6
f 266/282/6 265/281/6 267/283/6
f 267/283/6 265/281/6 268/284/6
f 267/285/6 268/286/6 269/287/6
f 269/287/6 268/286/6 270/288/6
