# MagicaVoxel @ Ephtracy

# group
o 

# material
mtllib Tree_Group.mtl
usemtl palette

# normals
vn -1 0 0
vn 1 0 0
vn 0 0 1
vn 0 0 -1
vn 0 -1 0
vn 0 1 0

# texcoords
vt 0.537109 0.5
vt 0.904297 0.5

# verts
v -0.8 0.3 0.3
v -0.8 0.3 -0.2
v -0.8 0.5 0.3
v -0.8 0.5 -0.2
v -0.7 0.3 0.4
v -0.7 0.3 0.3
v -0.7 0.3 -0.2
v -0.7 0.3 -0.3
v -0.7 0.5 0.4
v -0.7 0.5 0.3
v -0.7 0.5 0.2
v -0.7 0.5 -0.1
v -0.7 0.5 -0.2
v -0.7 0.5 -0.3
v -0.7 0.7 0.2
v -0.7 0.7 -0.1
v -0.6 0.3 0.5
v -0.6 0.3 0.4
v -0.6 0.3 -0.3
v -0.6 0.3 -0.4
v -0.6 0.5 0.5
v -0.6 0.5 0.4
v -0.6 0.5 0.3
v -0.6 0.5 0.2
v -0.6 0.5 -0.1
v -0.6 0.5 -0.2
v -0.6 0.5 -0.3
v -0.6 0.5 -0.4
v -0.6 0.7 0.3
v -0.6 0.7 0.2
v -0.6 0.7 -0.1
v -0.6 0.7 -0.2
v -0.6 0.9 0.2
v -0.6 0.9 -0.1
v -0.5 0.5 0.4
v -0.5 0.5 0.3
v -0.5 0.5 -0.2
v -0.5 0.5 -0.3
v -0.5 0.7 0.4
v -0.5 0.7 0.3
v -0.5 0.7 0.2
v -0.5 0.7 -0.1
v -0.5 0.7 -0.2
v -0.5 0.7 -0.3
v -0.5 0.9 0.3
v -0.5 0.9 0.2
v -0.5 0.9 -0.1
v -0.5 0.9 -0.2
v -0.5 1.1 0.2
v -0.5 1.1 -0.1
v -0.4 0 0.1
v -0.4 0 0
v -0.4 0.3 0.1
v -0.4 0.3 0
v -0.4 1.1 0.1
v -0.4 1.1 0
v -0.4 1.3 0.1
v -0.4 1.3 0
v 0 0.3 0.6
v 0 0.3 0.4
v 0 0.5 0.6
v 0 0.5 0.4
v 0.1 0.3 0.7
v 0.1 0.3 0.6
v 0.1 0.3 -0.2
v 0.1 0.3 -0.5
v 0.1 0.5 0.7
v 0.1 0.5 0.6
v 0.1 0.5 0.3
v 0.1 0.5 -0.2
v 0.1 0.5 -0.5
v 0.1 0.7 0.6
v 0.1 0.7 0.3
v 0.2 0.3 0.8
v 0.2 0.3 0.7
v 0.2 0.3 0.2
v 0.2 0.3 0.1
v 0.2 0.3 -0.1
v 0.2 0.3 -0.2
v 0.2 0.3 -0.5
v 0.2 0.3 -0.6
v 0.2 0.5 0.8
v 0.2 0.5 0.7
v 0.2 0.5 0.6
v 0.2 0.5 0.3
v 0.2 0.5 0.2
v 0.2 0.5 0.1
v 0.2 0.5 -0.1
v 0.2 0.5 -0.2
v 0.2 0.5 -0.5
v 0.2 0.5 -0.6
v 0.2 0.7 0.7
v 0.2 0.7 0.6
v 0.2 0.7 0.3
v 0.2 0.7 0.2
v 0.2 0.7 -0.2
v 0.2 0.7 -0.5
v 0.2 0.9 0.6
v 0.2 0.9 0.3
v 0.3 0 0.5
v 0.3 0 0.4
v 0.3 0.3 0.5
v 0.3 0.3 0.4
v 0.3 0.3 0
v 0.3 0.3 -0.1
v 0.3 0.3 -0.6
v 0.3 0.3 -0.7
v 0.3 0.5 0
v 0.3 0.5 -0.1
v 0.3 0.5 -0.2
v 0.3 0.5 -0.5
v 0.3 0.5 -0.6
v 0.3 0.5 -0.7
v 0.3 0.7 -0.1
v 0.3 0.7 -0.2
v 0.3 0.7 -0.5
v 0.3 0.7 -0.6
v 0.3 0.9 0.5
v 0.3 0.9 0.4
v 0.3 0.9 -0.2
v 0.3 0.9 -0.5
v 0.3 1.1 0.5
v 0.3 1.1 0.4
v 0.4 0 -0.3
v 0.4 0 -0.4
v 0.4 0.3 -0.3
v 0.4 0.3 -0.4
v 0.4 0.9 -0.3
v 0.4 0.9 -0.4
v 0.4 1.1 -0.3
v 0.4 1.1 -0.4
v -0.3 0 0.1
v -0.3 0 0
v -0.3 0.3 0.1
v -0.3 0.3 0
v -0.3 1.1 0.1
v -0.3 1.1 0
v -0.3 1.3 0.1
v -0.3 1.3 0
v -0.2 0.5 0.4
v -0.2 0.5 0.3
v -0.2 0.5 -0.2
v -0.2 0.5 -0.3
v -0.2 0.7 0.4
v -0.2 0.7 0.3
v -0.2 0.7 0.2
v -0.2 0.7 -0.1
v -0.2 0.7 -0.2
v -0.2 0.7 -0.3
v -0.2 0.9 0.3
v -0.2 0.9 0.2
v -0.2 0.9 -0.1
v -0.2 0.9 -0.2
v -0.2 1.1 0.2
v -0.2 1.1 -0.1
v -0.1 0.3 0.5
v -0.1 0.3 0.4
v -0.1 0.3 -0.3
v -0.1 0.3 -0.4
v -0.1 0.5 0.5
v -0.1 0.5 0.4
v -0.1 0.5 0.3
v -0.1 0.5 0.2
v -0.1 0.5 -0.1
v -0.1 0.5 -0.2
v -0.1 0.5 -0.3
v -0.1 0.5 -0.4
v -0.1 0.7 0.3
v -0.1 0.7 0.2
v -0.1 0.7 -0.1
v -0.1 0.7 -0.2
v -0.1 0.9 0.2
v -0.1 0.9 -0.1
v 0 0.3 -0.2
v 0 0.3 -0.3
v 0 0.5 0.2
v 0 0.5 -0.1
v 0 0.5 -0.2
v 0 0.5 -0.3
v 0 0.7 0.2
v 0 0.7 -0.1
v 0.1 0.3 0.2
v 0.1 0.3 -0.2
v 0.1 0.5 0.2
v 0.1 0.5 -0.2
v 0.4 0 0.5
v 0.4 0 0.4
v 0.4 0.3 0.5
v 0.4 0.3 0.4
v 0.4 0.9 0.5
v 0.4 0.9 0.4
v 0.4 1.1 0.5
v 0.4 1.1 0.4
v 0.5 0 -0.3
v 0.5 0 -0.4
v 0.5 0.3 0.8
v 0.5 0.3 0.7
v 0.5 0.3 0.2
v 0.5 0.3 0.1
v 0.5 0.3 -0.3
v 0.5 0.3 -0.4
v 0.5 0.5 0.8
v 0.5 0.5 0.7
v 0.5 0.5 0.6
v 0.5 0.5 0.3
v 0.5 0.5 0.2
v 0.5 0.5 0.1
v 0.5 0.7 0.7
v 0.5 0.7 0.6
v 0.5 0.7 0.3
v 0.5 0.7 0.2
v 0.5 0.9 0.6
v 0.5 0.9 0.3
v 0.5 0.9 -0.3
v 0.5 0.9 -0.4
v 0.5 1.1 -0.3
v 0.5 1.1 -0.4
v 0.6 0.3 0.7
v 0.6 0.3 0.6
v 0.6 0.3 0.3
v 0.6 0.3 0.2
v 0.6 0.3 0
v 0.6 0.3 -0.1
v 0.6 0.3 -0.6
v 0.6 0.3 -0.7
v 0.6 0.5 0.7
v 0.6 0.5 0.6
v 0.6 0.5 0.3
v 0.6 0.5 0.2
v 0.6 0.5 0
v 0.6 0.5 -0.1
v 0.6 0.5 -0.2
v 0.6 0.5 -0.5
v 0.6 0.5 -0.6
v 0.6 0.5 -0.7
v 0.6 0.7 0.6
v 0.6 0.7 0.3
v 0.6 0.7 -0.1
v 0.6 0.7 -0.2
v 0.6 0.7 -0.5
v 0.6 0.7 -0.6
v 0.6 0.9 -0.2
v 0.6 0.9 -0.5
v 0.7 0.3 0.6
v 0.7 0.3 0.3
v 0.7 0.3 -0.1
v 0.7 0.3 -0.2
v 0.7 0.3 -0.5
v 0.7 0.3 -0.6
v 0.7 0.5 0.6
v 0.7 0.5 0.3
v 0.7 0.5 -0.1
v 0.7 0.5 -0.2
v 0.7 0.5 -0.5
v 0.7 0.5 -0.6
v 0.7 0.7 -0.2
v 0.7 0.7 -0.5
v 0.8 0.3 -0.2
v 0.8 0.3 -0.5
v 0.8 0.5 -0.2
v 0.8 0.5 -0.5
v 0.2 0.3 0.8
v 0.2 0.5 0.8
v 0.5 0.3 0.8
v 0.5 0.5 0.8
v 0.1 0.3 0.7
v 0.1 0.5 0.7
v 0.2 0.3 0.7
v 0.2 0.5 0.7
v 0.2 0.7 0.7
v 0.5 0.3 0.7
v 0.5 0.5 0.7
v 0.5 0.7 0.7
v 0.6 0.3 0.7
v 0.6 0.5 0.7
v 0 0.3 0.6
v 0 0.5 0.6
v 0.1 0.3 0.6
v 0.1 0.5 0.6
v 0.1 0.7 0.6
v 0.2 0.5 0.6
v 0.2 0.7 0.6
v 0.2 0.9 0.6
v 0.5 0.5 0.6
v 0.5 0.7 0.6
v 0.5 0.9 0.6
v 0.6 0.3 0.6
v 0.6 0.5 0.6
v 0.6 0.7 0.6
v 0.7 0.3 0.6
v 0.7 0.5 0.6
v -0.6 0.3 0.5
v -0.6 0.5 0.5
v -0.1 0.3 0.5
v -0.1 0.5 0.5
v 0.3 0 0.5
v 0.3 0.3 0.5
v 0.3 0.9 0.5
v 0.3 1.1 0.5
v 0.4 0 0.5
v 0.4 0.3 0.5
v 0.4 0.9 0.5
v 0.4 1.1 0.5
v -0.7 0.3 0.4
v -0.7 0.5 0.4
v -0.6 0.3 0.4
v -0.6 0.5 0.4
v -0.5 0.5 0.4
v -0.5 0.7 0.4
v -0.2 0.5 0.4
v -0.2 0.7 0.4
v -0.1 0.3 0.4
v -0.1 0.5 0.4
v 0 0.3 0.4
v 0 0.5 0.4
v -0.8 0.3 0.3
v -0.8 0.5 0.3
v -0.7 0.3 0.3
v -0.7 0.5 0.3
v -0.6 0.5 0.3
v -0.6 0.7 0.3
v -0.5 0.5 0.3
v -0.5 0.7 0.3
v -0.5 0.9 0.3
v -0.2 0.5 0.3
v -0.2 0.7 0.3
v -0.2 0.9 0.3
v -0.1 0.5 0.3
v -0.1 0.7 0.3
v -0.7 0.5 0.2
v -0.7 0.7 0.2
v -0.6 0.5 0.2
v -0.6 0.7 0.2
v -0.6 0.9 0.2
v -0.5 0.7 0.2
v -0.5 0.9 0.2
v -0.5 1.1 0.2
v -0.2 0.7 0.2
v -0.2 0.9 0.2
v -0.2 1.1 0.2
v -0.1 0.5 0.2
v -0.1 0.7 0.2
v -0.1 0.9 0.2
v 0 0.5 0.2
v 0 0.7 0.2
v -0.4 0 0.1
v -0.4 0.3 0.1
v -0.4 1.1 0.1
v -0.4 1.3 0.1
v -0.3 0 0.1
v -0.3 0.3 0.1
v -0.3 1.1 0.1
v -0.3 1.3 0.1
v 0.3 0.3 0
v 0.3 0.5 0
v 0.6 0.3 0
v 0.6 0.5 0
v 0.2 0.3 -0.1
v 0.2 0.5 -0.1
v 0.3 0.3 -0.1
v 0.3 0.5 -0.1
v 0.3 0.7 -0.1
v 0.6 0.3 -0.1
v 0.6 0.5 -0.1
v 0.6 0.7 -0.1
v 0.7 0.3 -0.1
v 0.7 0.5 -0.1
v 0.1 0.3 -0.2
v 0.1 0.5 -0.2
v 0.2 0.3 -0.2
v 0.2 0.5 -0.2
v 0.2 0.7 -0.2
v 0.3 0.5 -0.2
v 0.3 0.7 -0.2
v 0.3 0.9 -0.2
v 0.6 0.5 -0.2
v 0.6 0.7 -0.2
v 0.6 0.9 -0.2
v 0.7 0.3 -0.2
v 0.7 0.5 -0.2
v 0.7 0.7 -0.2
v 0.8 0.3 -0.2
v 0.8 0.5 -0.2
v 0.4 0 -0.3
v 0.4 0.3 -0.3
v 0.4 0.9 -0.3
v 0.4 1.1 -0.3
v 0.5 0 -0.3
v 0.5 0.3 -0.3
v 0.5 0.9 -0.3
v 0.5 1.1 -0.3
v 0.3 0 0.4
v 0.3 0.3 0.4
v 0.3 0.9 0.4
v 0.3 1.1 0.4
v 0.4 0 0.4
v 0.4 0.3 0.4
v 0.4 0.9 0.4
v 0.4 1.1 0.4
v 0.1 0.5 0.3
v 0.1 0.7 0.3
v 0.2 0.5 0.3
v 0.2 0.7 0.3
v 0.2 0.9 0.3
v 0.5 0.5 0.3
v 0.5 0.7 0.3
v 0.5 0.9 0.3
v 0.6 0.3 0.3
v 0.6 0.5 0.3
v 0.6 0.7 0.3
v 0.7 0.3 0.3
v 0.7 0.5 0.3
v 0.1 0.3 0.2
v 0.1 0.5 0.2
v 0.2 0.3 0.2
v 0.2 0.5 0.2
v 0.2 0.7 0.2
v 0.5 0.3 0.2
v 0.5 0.5 0.2
v 0.5 0.7 0.2
v 0.6 0.3 0.2
v 0.6 0.5 0.2
v 0.2 0.3 0.1
v 0.2 0.5 0.1
v 0.5 0.3 0.1
v 0.5 0.5 0.1
v -0.4 0 0
v -0.4 0.3 0
v -0.4 1.1 0
v -0.4 1.3 0
v -0.3 0 0
v -0.3 0.3 0
v -0.3 1.1 0
v -0.3 1.3 0
v -0.7 0.5 -0.1
v -0.7 0.7 -0.1
v -0.6 0.5 -0.1
v -0.6 0.7 -0.1
v -0.6 0.9 -0.1
v -0.5 0.7 -0.1
v -0.5 0.9 -0.1
v -0.5 1.1 -0.1
v -0.2 0.7 -0.1
v -0.2 0.9 -0.1
v -0.2 1.1 -0.1
v -0.1 0.5 -0.1
v -0.1 0.7 -0.1
v -0.1 0.9 -0.1
v 0 0.5 -0.1
v 0 0.7 -0.1
v -0.8 0.3 -0.2
v -0.8 0.5 -0.2
v -0.7 0.3 -0.2
v -0.7 0.5 -0.2
v -0.6 0.5 -0.2
v -0.6 0.7 -0.2
v -0.5 0.5 -0.2
v -0.5 0.7 -0.2
v -0.5 0.9 -0.2
v -0.2 0.5 -0.2
v -0.2 0.7 -0.2
v -0.2 0.9 -0.2
v -0.1 0.5 -0.2
v -0.1 0.7 -0.2
v 0 0.3 -0.2
v 0 0.5 -0.2
v 0.1 0.3 -0.2
v 0.1 0.5 -0.2
v -0.7 0.3 -0.3
v -0.7 0.5 -0.3
v -0.6 0.3 -0.3
v -0.6 0.5 -0.3
v -0.5 0.5 -0.3
v -0.5 0.7 -0.3
v -0.2 0.5 -0.3
v -0.2 0.7 -0.3
v -0.1 0.3 -0.3
v -0.1 0.5 -0.3
v 0 0.3 -0.3
v 0 0.5 -0.3
v -0.6 0.3 -0.4
v -0.6 0.5 -0.4
v -0.1 0.3 -0.4
v -0.1 0.5 -0.4
v 0.4 0 -0.4
v 0.4 0.3 -0.4
v 0.4 0.9 -0.4
v 0.4 1.1 -0.4
v 0.5 0 -0.4
v 0.5 0.3 -0.4
v 0.5 0.9 -0.4
v 0.5 1.1 -0.4
v 0.1 0.3 -0.5
v 0.1 0.5 -0.5
v 0.2 0.3 -0.5
v 0.2 0.5 -0.5
v 0.2 0.7 -0.5
v 0.3 0.5 -0.5
v 0.3 0.7 -0.5
v 0.3 0.9 -0.5
v 0.6 0.5 -0.5
v 0.6 0.7 -0.5
v 0.6 0.9 -0.5
v 0.7 0.3 -0.5
v 0.7 0.5 -0.5
v 0.7 0.7 -0.5
v 0.8 0.3 -0.5
v 0.8 0.5 -0.5
v 0.2 0.3 -0.6
v 0.2 0.5 -0.6
v 0.3 0.3 -0.6
v 0.3 0.5 -0.6
v 0.3 0.7 -0.6
v 0.6 0.3 -0.6
v 0.6 0.5 -0.6
v 0.6 0.7 -0.6
v 0.7 0.3 -0.6
v 0.7 0.5 -0.6
v 0.3 0.3 -0.7
v 0.3 0.5 -0.7
v 0.6 0.3 -0.7
v 0.6 0.5 -0.7
v 0.3 0 0.5
v 0.4 0 0.5
v 0.3 0 0.4
v 0.4 0 0.4
v -0.4 0 0.1
v -0.3 0 0.1
v -0.4 0 0
v -0.3 0 0
v 0.4 0 -0.3
v 0.5 0 -0.3
v 0.4 0 -0.4
v 0.5 0 -0.4
v 0.2 0.3 0.8
v 0.5 0.3 0.8
v 0.1 0.3 0.7
v 0.2 0.3 0.7
v 0.5 0.3 0.7
v 0.6 0.3 0.7
v 0 0.3 0.6
v 0.1 0.3 0.6
v 0.6 0.3 0.6
v 0.7 0.3 0.6
v -0.6 0.3 0.5
v -0.1 0.3 0.5
v 0.3 0.3 0.5
v 0.4 0.3 0.5
v -0.7 0.3 0.4
v -0.6 0.3 0.4
v -0.1 0.3 0.4
v 0 0.3 0.4
v 0.3 0.3 0.4
v 0.4 0.3 0.4
v -0.8 0.3 0.3
v -0.7 0.3 0.3
v 0.6 0.3 0.3
v 0.7 0.3 0.3
v 0.1 0.3 0.2
v 0.2 0.3 0.2
v 0.5 0.3 0.2
v 0.6 0.3 0.2
v -0.4 0.3 0.1
v -0.3 0.3 0.1
v 0.2 0.3 0.1
v 0.5 0.3 0.1
v -0.4 0.3 0
v -0.3 0.3 0
v 0.3 0.3 0
v 0.6 0.3 0
v 0.2 0.3 -0.1
v 0.3 0.3 -0.1
v 0.6 0.3 -0.1
v 0.7 0.3 -0.1
v -0.8 0.3 -0.2
v -0.7 0.3 -0.2
v 0 0.3 -0.2
v 0.1 0.3 -0.2
v 0.2 0.3 -0.2
v 0.7 0.3 -0.2
v 0.8 0.3 -0.2
v -0.7 0.3 -0.3
v -0.6 0.3 -0.3
v -0.1 0.3 -0.3
v 0 0.3 -0.3
v 0.4 0.3 -0.3
v 0.5 0.3 -0.3
v -0.6 0.3 -0.4
v -0.1 0.3 -0.4
v 0.4 0.3 -0.4
v 0.5 0.3 -0.4
v 0.1 0.3 -0.5
v 0.2 0.3 -0.5
v 0.7 0.3 -0.5
v 0.8 0.3 -0.5
v 0.2 0.3 -0.6
v 0.3 0.3 -0.6
v 0.6 0.3 -0.6
v 0.7 0.3 -0.6
v 0.3 0.3 -0.7
v 0.6 0.3 -0.7
v 0.2 0.5 0.8
v 0.5 0.5 0.8
v 0.1 0.5 0.7
v 0.2 0.5 0.7
v 0.5 0.5 0.7
v 0.6 0.5 0.7
v 0 0.5 0.6
v 0.1 0.5 0.6
v 0.2 0.5 0.6
v 0.5 0.5 0.6
v 0.6 0.5 0.6
v 0.7 0.5 0.6
v -0.6 0.5 0.5
v -0.1 0.5 0.5
v -0.7 0.5 0.4
v -0.6 0.5 0.4
v -0.5 0.5 0.4
v -0.2 0.5 0.4
v -0.1 0.5 0.4
v 0 0.5 0.4
v -0.8 0.5 0.3
v -0.7 0.5 0.3
v -0.6 0.5 0.3
v -0.5 0.5 0.3
v -0.2 0.5 0.3
v -0.1 0.5 0.3
v 0.1 0.5 0.3
v 0.2 0.5 0.3
v 0.5 0.5 0.3
v 0.6 0.5 0.3
v 0.7 0.5 0.3
v -0.7 0.5 0.2
v -0.6 0.5 0.2
v -0.1 0.5 0.2
v 0 0.5 0.2
v 0.1 0.5 0.2
v 0.2 0.5 0.2
v 0.5 0.5 0.2
v 0.6 0.5 0.2
v 0.2 0.5 0.1
v 0.5 0.5 0.1
v 0.3 0.5 0
v 0.6 0.5 0
v -0.7 0.5 -0.1
v -0.6 0.5 -0.1
v -0.1 0.5 -0.1
v 0 0.5 -0.1
v 0.2 0.5 -0.1
v 0.3 0.5 -0.1
v 0.6 0.5 -0.1
v 0.7 0.5 -0.1
v -0.8 0.5 -0.2
v -0.7 0.5 -0.2
v -0.6 0.5 -0.2
v -0.5 0.5 -0.2
v -0.2 0.5 -0.2
v -0.1 0.5 -0.2
v 0 0.5 -0.2
v 0.1 0.5 -0.2
v 0.2 0.5 -0.2
v 0.3 0.5 -0.2
v 0.6 0.5 -0.2
v 0.7 0.5 -0.2
v 0.8 0.5 -0.2
v -0.7 0.5 -0.3
v -0.6 0.5 -0.3
v -0.5 0.5 -0.3
v -0.2 0.5 -0.3
v -0.1 0.5 -0.3
v 0 0.5 -0.3
v -0.6 0.5 -0.4
v -0.1 0.5 -0.4
v 0.1 0.5 -0.5
v 0.2 0.5 -0.5
v 0.3 0.5 -0.5
v 0.6 0.5 -0.5
v 0.7 0.5 -0.5
v 0.8 0.5 -0.5
v 0.2 0.5 -0.6
v 0.3 0.5 -0.6
v 0.6 0.5 -0.6
v 0.7 0.5 -0.6
v 0.3 0.5 -0.7
v 0.6 0.5 -0.7
v 0.2 0.7 0.7
v 0.5 0.7 0.7
v 0.1 0.7 0.6
v 0.2 0.7 0.6
v 0.5 0.7 0.6
v 0.6 0.7 0.6
v -0.5 0.7 0.4
v -0.2 0.7 0.4
v -0.6 0.7 0.3
v -0.5 0.7 0.3
v -0.2 0.7 0.3
v -0.1 0.7 0.3
v 0.1 0.7 0.3
v 0.2 0.7 0.3
v 0.5 0.7 0.3
v 0.6 0.7 0.3
v -0.7 0.7 0.2
v -0.6 0.7 0.2
v -0.5 0.7 0.2
v -0.2 0.7 0.2
v -0.1 0.7 0.2
v 0 0.7 0.2
v 0.2 0.7 0.2
v 0.5 0.7 0.2
v -0.7 0.7 -0.1
v -0.6 0.7 -0.1
v -0.5 0.7 -0.1
v -0.2 0.7 -0.1
v -0.1 0.7 -0.1
v 0 0.7 -0.1
v 0.3 0.7 -0.1
v 0.6 0.7 -0.1
v -0.6 0.7 -0.2
v -0.5 0.7 -0.2
v -0.2 0.7 -0.2
v -0.1 0.7 -0.2
v 0.2 0.7 -0.2
v 0.3 0.7 -0.2
v 0.6 0.7 -0.2
v 0.7 0.7 -0.2
v -0.5 0.7 -0.3
v -0.2 0.7 -0.3
v 0.2 0.7 -0.5
v 0.3 0.7 -0.5
v 0.6 0.7 -0.5
v 0.7 0.7 -0.5
v 0.3 0.7 -0.6
v 0.6 0.7 -0.6
v 0.2 0.9 0.6
v 0.5 0.9 0.6
v 0.3 0.9 0.5
v 0.4 0.9 0.5
v 0.3 0.9 0.4
v 0.4 0.9 0.4
v -0.5 0.9 0.3
v -0.2 0.9 0.3
v 0.2 0.9 0.3
v 0.5 0.9 0.3
v -0.6 0.9 0.2
v -0.5 0.9 0.2
v -0.2 0.9 0.2
v -0.1 0.9 0.2
v -0.6 0.9 -0.1
v -0.5 0.9 -0.1
v -0.2 0.9 -0.1
v -0.1 0.9 -0.1
v -0.5 0.9 -0.2
v -0.2 0.9 -0.2
v 0.3 0.9 -0.2
v 0.6 0.9 -0.2
v 0.4 0.9 -0.3
v 0.5 0.9 -0.3
v 0.4 0.9 -0.4
v 0.5 0.9 -0.4
v 0.3 0.9 -0.5
v 0.6 0.9 -0.5
v 0.3 1.1 0.5
v 0.4 1.1 0.5
v 0.3 1.1 0.4
v 0.4 1.1 0.4
v -0.5 1.1 0.2
v -0.2 1.1 0.2
v -0.4 1.1 0.1
v -0.3 1.1 0.1
v -0.4 1.1 0
v -0.3 1.1 0
v -0.5 1.1 -0.1
v -0.2 1.1 -0.1
v 0.4 1.1 -0.3
v 0.5 1.1 -0.3
v 0.4 1.1 -0.4
v 0.5 1.1 -0.4
v -0.4 1.3 0.1
v -0.3 1.3 0.1
v -0.4 1.3 0
v -0.3 1.3 0

# faces
f 3/2/1 2/2/1 1/2/1
f 4/2/1 2/2/1 3/2/1
f 9/2/1 6/2/1 5/2/1
f 10/2/1 6/2/1 9/2/1
f 13/2/1 8/2/1 7/2/1
f 14/2/1 8/2/1 13/2/1
f 15/2/1 12/2/1 11/2/1
f 16/2/1 12/2/1 15/2/1
f 21/2/1 18/2/1 17/2/1
f 22/2/1 18/2/1 21/2/1
f 27/2/1 20/2/1 19/2/1
f 28/2/1 20/2/1 27/2/1
f 29/2/1 24/2/1 23/2/1
f 30/2/1 24/2/1 29/2/1
f 31/2/1 26/2/1 25/2/1
f 32/2/1 26/2/1 31/2/1
f 33/2/1 31/2/1 30/2/1
f 34/2/1 31/2/1 33/2/1
f 39/2/1 36/2/1 35/2/1
f 40/2/1 36/2/1 39/2/1
f 43/2/1 38/2/1 37/2/1
f 44/2/1 38/2/1 43/2/1
f 45/2/1 41/2/1 40/2/1
f 46/2/1 41/2/1 45/2/1
f 47/2/1 43/2/1 42/2/1
f 48/2/1 43/2/1 47/2/1
f 49/2/1 47/2/1 46/2/1
f 50/2/1 47/2/1 49/2/1
f 53/1/1 52/1/1 51/1/1
f 54/1/1 52/1/1 53/1/1
f 57/2/1 56/2/1 55/2/1
f 58/2/1 56/2/1 57/2/1
f 61/2/1 60/2/1 59/2/1
f 62/2/1 60/2/1 61/2/1
f 67/2/1 64/2/1 63/2/1
f 68/2/1 64/2/1 67/2/1
f 70/2/1 66/2/1 65/2/1
f 71/2/1 66/2/1 70/2/1
f 72/2/1 69/2/1 68/2/1
f 73/2/1 69/2/1 72/2/1
f 82/2/1 75/2/1 74/2/1
f 83/2/1 75/2/1 82/2/1
f 86/2/1 77/2/1 76/2/1
f 87/2/1 77/2/1 86/2/1
f 88/2/1 79/2/1 78/2/1
f 89/2/1 79/2/1 88/2/1
f 90/2/1 81/2/1 80/2/1
f 91/2/1 81/2/1 90/2/1
f 92/2/1 84/2/1 83/2/1
f 93/2/1 84/2/1 92/2/1
f 94/2/1 86/2/1 85/2/1
f 95/2/1 86/2/1 94/2/1
f 96/2/1 90/2/1 89/2/1
f 97/2/1 90/2/1 96/2/1
f 98/2/1 94/2/1 93/2/1
f 99/2/1 94/2/1 98/2/1
f 102/1/1 101/1/1 100/1/1
f 103/1/1 101/1/1 102/1/1
f 108/2/1 105/2/1 104/2/1
f 109/2/1 105/2/1 108/2/1
f 112/2/1 107/2/1 106/2/1
f 113/2/1 107/2/1 112/2/1
f 114/2/1 110/2/1 109/2/1
f 115/2/1 110/2/1 114/2/1
f 116/2/1 112/2/1 111/2/1
f 117/2/1 112/2/1 116/2/1
f 120/2/1 116/2/1 115/2/1
f 121/2/1 116/2/1 120/2/1
f 122/2/1 119/2/1 118/2/1
f 123/2/1 119/2/1 122/2/1
f 126/1/1 125/1/1 124/1/1
f 127/1/1 125/1/1 126/1/1
f 130/2/1 129/2/1 128/2/1
f 131/2/1 129/2/1 130/2/1
f 132/1/2 133/1/2 134/1/2
f 134/1/2 133/1/2 135/1/2
f 136/2/2 137/2/2 138/2/2
f 138/2/2 137/2/2 139/2/2
f 140/2/2 141/2/2 144/2/2
f 144/2/2 141/2/2 145/2/2
f 142/2/2 143/2/2 148/2/2
f 148/2/2 143/2/2 149/2/2
f 145/2/2 146/2/2 150/2/2
f 150/2/2 146/2/2 151/2/2
f 147/2/2 148/2/2 152/2/2
f 152/2/2 148/2/2 153/2/2
f 151/2/2 152/2/2 154/2/2
f 154/2/2 152/2/2 155/2/2
f 156/2/2 157/2/2 160/2/2
f 160/2/2 157/2/2 161/2/2
f 158/2/2 159/2/2 166/2/2
f 166/2/2 159/2/2 167/2/2
f 162/2/2 163/2/2 168/2/2
f 168/2/2 163/2/2 169/2/2
f 164/2/2 165/2/2 170/2/2
f 170/2/2 165/2/2 171/2/2
f 169/2/2 170/2/2 172/2/2
f 172/2/2 170/2/2 173/2/2
f 174/2/2 175/2/2 178/2/2
f 178/2/2 175/2/2 179/2/2
f 176/2/2 177/2/2 180/2/2
f 180/2/2 177/2/2 181/2/2
f 182/2/2 183/2/2 184/2/2
f 184/2/2 183/2/2 185/2/2
f 186/1/2 187/1/2 188/1/2
f 188/1/2 187/1/2 189/1/2
f 190/2/2 191/2/2 192/2/2
f 192/2/2 191/2/2 193/2/2
f 194/1/2 195/1/2 200/1/2
f 200/1/2 195/1/2 201/1/2
f 196/2/2 197/2/2 202/2/2
f 202/2/2 197/2/2 203/2/2
f 198/2/2 199/2/2 206/2/2
f 206/2/2 199/2/2 207/2/2
f 203/2/2 204/2/2 208/2/2
f 208/2/2 204/2/2 209/2/2
f 205/2/2 206/2/2 210/2/2
f 210/2/2 206/2/2 211/2/2
f 209/2/2 210/2/2 212/2/2
f 212/2/2 210/2/2 213/2/2
f 214/2/2 215/2/2 216/2/2
f 216/2/2 215/2/2 217/2/2
f 218/2/2 219/2/2 226/2/2
f 226/2/2 219/2/2 227/2/2
f 220/2/2 221/2/2 228/2/2
f 228/2/2 221/2/2 229/2/2
f 222/2/2 223/2/2 230/2/2
f 230/2/2 223/2/2 231/2/2
f 224/2/2 225/2/2 234/2/2
f 234/2/2 225/2/2 235/2/2
f 227/2/2 228/2/2 236/2/2
f 236/2/2 228/2/2 237/2/2
f 231/2/2 232/2/2 238/2/2
f 238/2/2 232/2/2 239/2/2
f 233/2/2 234/2/2 240/2/2
f 240/2/2 234/2/2 241/2/2
f 239/2/2 240/2/2 242/2/2
f 242/2/2 240/2/2 243/2/2
f 244/2/2 245/2/2 250/2/2
f 250/2/2 245/2/2 251/2/2
f 246/2/2 247/2/2 252/2/2
f 252/2/2 247/2/2 253/2/2
f 248/2/2 249/2/2 254/2/2
f 254/2/2 249/2/2 255/2/2
f 253/2/2 254/2/2 256/2/2
f 256/2/2 254/2/2 257/2/2
f 258/2/2 259/2/2 260/2/2
f 260/2/2 259/2/2 261/2/2
f 264/2/3 263/2/3 262/2/3
f 265/2/3 263/2/3 264/2/3
f 268/2/3 267/2/3 266/2/3
f 269/2/3 267/2/3 268/2/3
f 272/2/3 270/2/3 269/2/3
f 273/2/3 270/2/3 272/2/3
f 274/2/3 272/2/3 271/2/3
f 275/2/3 272/2/3 274/2/3
f 278/2/3 277/2/3 276/2/3
f 279/2/3 277/2/3 278/2/3
f 281/2/3 280/2/3 279/2/3
f 282/2/3 280/2/3 281/2/3
f 285/2/3 283/2/3 282/2/3
f 286/2/3 283/2/3 285/2/3
f 288/2/3 285/2/3 284/2/3
f 289/2/3 285/2/3 288/2/3
f 290/2/3 288/2/3 287/2/3
f 291/2/3 288/2/3 290/2/3
f 294/2/3 293/2/3 292/2/3
f 295/2/3 293/2/3 294/2/3
f 300/1/3 297/1/3 296/1/3
f 301/1/3 297/1/3 300/1/3
f 302/2/3 299/2/3 298/2/3
f 303/2/3 299/2/3 302/2/3
f 306/2/3 305/2/3 304/2/3
f 307/2/3 305/2/3 306/2/3
f 310/2/3 309/2/3 308/2/3
f 311/2/3 309/2/3 310/2/3
f 314/2/3 313/2/3 312/2/3
f 315/2/3 313/2/3 314/2/3
f 318/2/3 317/2/3 316/2/3
f 319/2/3 317/2/3 318/2/3
f 322/2/3 321/2/3 320/2/3
f 323/2/3 321/2/3 322/2/3
f 326/2/3 324/2/3 323/2/3
f 327/2/3 324/2/3 326/2/3
f 328/2/3 326/2/3 325/2/3
f 329/2/3 326/2/3 328/2/3
f 332/2/3 331/2/3 330/2/3
f 333/2/3 331/2/3 332/2/3
f 335/2/3 334/2/3 333/2/3
f 336/2/3 334/2/3 335/2/3
f 339/2/3 337/2/3 336/2/3
f 340/2/3 337/2/3 339/2/3
f 342/2/3 339/2/3 338/2/3
f 343/2/3 339/2/3 342/2/3
f 344/2/3 342/2/3 341/2/3
f 345/2/3 342/2/3 344/2/3
f 350/1/3 347/1/3 346/1/3
f 351/1/3 347/1/3 350/1/3
f 352/2/3 349/2/3 348/2/3
f 353/2/3 349/2/3 352/2/3
f 356/2/3 355/2/3 354/2/3
f 357/2/3 355/2/3 356/2/3
f 360/2/3 359/2/3 358/2/3
f 361/2/3 359/2/3 360/2/3
f 364/2/3 362/2/3 361/2/3
f 365/2/3 362/2/3 364/2/3
f 366/2/3 364/2/3 363/2/3
f 367/2/3 364/2/3 366/2/3
f 370/2/3 369/2/3 368/2/3
f 371/2/3 369/2/3 370/2/3
f 373/2/3 372/2/3 371/2/3
f 374/2/3 372/2/3 373/2/3
f 377/2/3 375/2/3 374/2/3
f 378/2/3 375/2/3 377/2/3
f 380/2/3 377/2/3 376/2/3
f 381/2/3 377/2/3 380/2/3
f 382/2/3 380/2/3 379/2/3
f 383/2/3 380/2/3 382/2/3
f 388/1/3 385/1/3 384/1/3
f 389/1/3 385/1/3 388/1/3
f 390/2/3 387/2/3 386/2/3
f 391/2/3 387/2/3 390/2/3
f 392/1/4 393/1/4 396/1/4
f 396/1/4 393/1/4 397/1/4
f 394/2/4 395/2/4 398/2/4
f 398/2/4 395/2/4 399/2/4
f 400/2/4 401/2/4 402/2/4
f 402/2/4 401/2/4 403/2/4
f 403/2/4 404/2/4 406/2/4
f 406/2/4 404/2/4 407/2/4
f 405/2/4 406/2/4 409/2/4
f 409/2/4 406/2/4 410/2/4
f 408/2/4 409/2/4 411/2/4
f 411/2/4 409/2/4 412/2/4
f 413/2/4 414/2/4 415/2/4
f 415/2/4 414/2/4 416/2/4
f 416/2/4 417/2/4 419/2/4
f 419/2/4 417/2/4 420/2/4
f 418/2/4 419/2/4 421/2/4
f 421/2/4 419/2/4 422/2/4
f 423/2/4 424/2/4 425/2/4
f 425/2/4 424/2/4 426/2/4
f 427/1/4 428/1/4 431/1/4
f 431/1/4 428/1/4 432/1/4
f 429/2/4 430/2/4 433/2/4
f 433/2/4 430/2/4 434/2/4
f 435/2/4 436/2/4 437/2/4
f 437/2/4 436/2/4 438/2/4
f 438/2/4 439/2/4 440/2/4
f 440/2/4 439/2/4 441/2/4
f 441/2/4 442/2/4 444/2/4
f 444/2/4 442/2/4 445/2/4
f 443/2/4 444/2/4 447/2/4
f 447/2/4 444/2/4 448/2/4
f 446/2/4 447/2/4 449/2/4
f 449/2/4 447/2/4 450/2/4
f 451/2/4 452/2/4 453/2/4
f 453/2/4 452/2/4 454/2/4
f 455/2/4 456/2/4 457/2/4
f 457/2/4 456/2/4 458/2/4
f 458/2/4 459/2/4 461/2/4
f 461/2/4 459/2/4 462/2/4
f 460/2/4 461/2/4 463/2/4
f 463/2/4 461/2/4 464/2/4
f 465/2/4 466/2/4 467/2/4
f 467/2/4 466/2/4 468/2/4
f 469/2/4 470/2/4 471/2/4
f 471/2/4 470/2/4 472/2/4
f 473/2/4 474/2/4 475/2/4
f 475/2/4 474/2/4 476/2/4
f 477/2/4 478/2/4 479/2/4
f 479/2/4 478/2/4 480/2/4
f 481/2/4 482/2/4 483/2/4
f 483/2/4 482/2/4 484/2/4
f 485/1/4 486/1/4 489/1/4
f 489/1/4 486/1/4 490/1/4
f 487/2/4 488/2/4 491/2/4
f 491/2/4 488/2/4 492/2/4
f 493/2/4 494/2/4 495/2/4
f 495/2/4 494/2/4 496/2/4
f 496/2/4 497/2/4 498/2/4
f 498/2/4 497/2/4 499/2/4
f 499/2/4 500/2/4 502/2/4
f 502/2/4 500/2/4 503/2/4
f 501/2/4 502/2/4 505/2/4
f 505/2/4 502/2/4 506/2/4
f 504/2/4 505/2/4 507/2/4
f 507/2/4 505/2/4 508/2/4
f 509/2/4 510/2/4 511/2/4
f 511/2/4 510/2/4 512/2/4
f 512/2/4 513/2/4 515/2/4
f 515/2/4 513/2/4 516/2/4
f 514/2/4 515/2/4 517/2/4
f 517/2/4 515/2/4 518/2/4
f 519/2/4 520/2/4 521/2/4
f 521/2/4 520/2/4 522/2/4
f 525/1/5 524/1/5 523/1/5
f 526/1/5 524/1/5 525/1/5
f 529/1/5 528/1/5 527/1/5
f 530/1/5 528/1/5 529/1/5
f 533/1/5 532/1/5 531/1/5
f 534/1/5 532/1/5 533/1/5
f 538/2/5 536/2/5 535/2/5
f 539/2/5 536/2/5 538/2/5
f 542/2/5 538/2/5 537/2/5
f 542/2/5 540/2/5 539/2/5
f 542/2/5 539/2/5 538/2/5
f 543/2/5 540/2/5 542/2/5
f 547/2/5 542/2/5 541/2/5
f 547/2/5 543/2/5 542/2/5
f 547/2/5 544/2/5 543/2/5
f 548/2/5 544/2/5 547/2/5
f 550/2/5 546/2/5 545/2/5
f 551/2/5 546/2/5 550/2/5
f 552/2/5 547/2/5 541/2/5
f 553/2/5 547/2/5 552/2/5
f 554/2/5 544/2/5 548/2/5
f 556/2/5 553/2/5 552/2/5
f 556/2/5 554/2/5 553/2/5
f 556/2/5 551/2/5 550/2/5
f 556/2/5 550/2/5 549/2/5
f 556/2/5 552/2/5 551/2/5
f 557/2/5 544/2/5 554/2/5
f 557/2/5 554/2/5 556/2/5
f 558/2/5 544/2/5 557/2/5
f 559/2/5 556/2/5 555/2/5
f 559/2/5 557/2/5 556/2/5
f 560/2/5 557/2/5 559/2/5
f 561/2/5 557/2/5 560/2/5
f 562/2/5 557/2/5 561/2/5
f 563/2/5 559/2/5 555/2/5
f 564/2/5 559/2/5 563/2/5
f 565/2/5 561/2/5 560/2/5
f 566/2/5 561/2/5 565/2/5
f 567/2/5 563/2/5 555/2/5
f 568/2/5 559/2/5 564/2/5
f 572/2/5 570/2/5 569/2/5
f 573/2/5 570/2/5 572/2/5
f 575/2/5 567/2/5 555/2/5
f 575/2/5 568/2/5 567/2/5
f 576/2/5 568/2/5 575/2/5
f 577/2/5 559/2/5 568/2/5
f 577/2/5 568/2/5 576/2/5
f 578/2/5 559/2/5 577/2/5
f 579/2/5 573/2/5 572/2/5
f 579/2/5 574/2/5 573/2/5
f 579/2/5 572/2/5 571/2/5
f 580/2/5 574/2/5 579/2/5
f 582/2/5 577/2/5 576/2/5
f 583/2/5 577/2/5 582/2/5
f 584/2/5 577/2/5 583/2/5
f 585/2/5 577/2/5 584/2/5
f 586/2/5 580/2/5 579/2/5
f 586/2/5 581/2/5 580/2/5
f 586/2/5 579/2/5 578/2/5
f 587/2/5 581/2/5 586/2/5
f 588/2/5 584/2/5 583/2/5
f 589/2/5 584/2/5 588/2/5
f 590/2/5 586/2/5 578/2/5
f 591/2/5 581/2/5 587/2/5
f 592/2/5 590/2/5 578/2/5
f 592/2/5 591/2/5 590/2/5
f 593/2/5 591/2/5 592/2/5
f 594/2/5 581/2/5 591/2/5
f 594/2/5 591/2/5 593/2/5
f 595/2/5 581/2/5 594/2/5
f 596/2/5 594/2/5 593/2/5
f 597/2/5 594/2/5 596/2/5
f 598/2/5 594/2/5 597/2/5
f 599/2/5 594/2/5 598/2/5
f 600/2/5 598/2/5 597/2/5
f 601/2/5 598/2/5 600/2/5
f 602/2/6 603/2/6 605/2/6
f 605/2/6 603/2/6 606/2/6
f 604/2/6 605/2/6 609/2/6
f 609/2/6 605/2/6 610/2/6
f 606/2/6 607/2/6 611/2/6
f 611/2/6 607/2/6 612/2/6
f 614/2/6 615/2/6 617/2/6
f 617/2/6 615/2/6 618/2/6
f 618/2/6 615/2/6 619/2/6
f 619/2/6 615/2/6 620/2/6
f 608/2/6 609/2/6 621/2/6
f 616/2/6 617/2/6 623/2/6
f 617/2/6 618/2/6 623/2/6
f 623/2/6 618/2/6 624/2/6
f 624/2/6 618/2/6 625/2/6
f 619/2/6 620/2/6 626/2/6
f 620/2/6 621/2/6 626/2/6
f 626/2/6 621/2/6 627/2/6
f 621/2/6 609/2/6 628/2/6
f 627/2/6 621/2/6 628/2/6
f 612/2/6 613/2/6 631/2/6
f 631/2/6 613/2/6 632/2/6
f 623/2/6 624/2/6 633/2/6
f 622/2/6 623/2/6 633/2/6
f 633/2/6 624/2/6 634/2/6
f 628/2/6 629/2/6 635/2/6
f 627/2/6 628/2/6 635/2/6
f 635/2/6 629/2/6 636/2/6
f 636/2/6 629/2/6 637/2/6
f 637/2/6 629/2/6 638/2/6
f 630/2/6 631/2/6 639/2/6
f 639/2/6 631/2/6 640/2/6
f 638/2/6 639/2/6 641/2/6
f 641/2/6 639/2/6 642/2/6
f 622/2/6 633/2/6 645/2/6
f 636/2/6 637/2/6 648/2/6
f 643/2/6 644/2/6 650/2/6
f 650/2/6 644/2/6 651/2/6
f 645/2/6 646/2/6 653/2/6
f 622/2/6 645/2/6 653/2/6
f 653/2/6 646/2/6 654/2/6
f 654/2/6 646/2/6 655/2/6
f 647/2/6 648/2/6 658/2/6
f 648/2/6 637/2/6 659/2/6
f 658/2/6 648/2/6 659/2/6
f 659/2/6 637/2/6 660/2/6
f 649/2/6 650/2/6 661/2/6
f 661/2/6 650/2/6 662/2/6
f 651/2/6 652/2/6 663/2/6
f 663/2/6 652/2/6 664/2/6
f 655/2/6 656/2/6 666/2/6
f 654/2/6 655/2/6 666/2/6
f 666/2/6 656/2/6 667/2/6
f 667/2/6 656/2/6 668/2/6
f 657/2/6 658/2/6 669/2/6
f 658/2/6 659/2/6 669/2/6
f 669/2/6 659/2/6 670/2/6
f 670/2/6 659/2/6 671/2/6
f 667/2/6 668/2/6 672/2/6
f 669/2/6 670/2/6 672/2/6
f 668/2/6 669/2/6 672/2/6
f 672/2/6 670/2/6 673/2/6
f 660/2/6 661/2/6 674/2/6
f 674/2/6 661/2/6 675/2/6
f 664/2/6 665/2/6 678/2/6
f 678/2/6 665/2/6 679/2/6
f 675/2/6 676/2/6 680/2/6
f 680/2/6 676/2/6 681/2/6
f 677/2/6 678/2/6 682/2/6
f 682/2/6 678/2/6 683/2/6
f 681/2/6 682/2/6 684/2/6
f 684/2/6 682/2/6 685/2/6
f 686/2/6 687/2/6 689/2/6
f 689/2/6 687/2/6 690/2/6
f 692/2/6 693/2/6 695/2/6
f 695/2/6 693/2/6 696/2/6
f 688/2/6 689/2/6 698/2/6
f 698/2/6 689/2/6 699/2/6
f 690/2/6 691/2/6 700/2/6
f 700/2/6 691/2/6 701/2/6
f 694/2/6 695/2/6 703/2/6
f 703/2/6 695/2/6 704/2/6
f 696/2/6 697/2/6 705/2/6
f 705/2/6 697/2/6 706/2/6
f 699/2/6 700/2/6 708/2/6
f 708/2/6 700/2/6 709/2/6
f 702/2/6 703/2/6 710/2/6
f 710/2/6 703/2/6 711/2/6
f 706/2/6 707/2/6 714/2/6
f 714/2/6 707/2/6 715/2/6
f 711/2/6 712/2/6 718/2/6
f 718/2/6 712/2/6 719/2/6
f 713/2/6 714/2/6 720/2/6
f 720/2/6 714/2/6 721/2/6
f 716/2/6 717/2/6 723/2/6
f 723/2/6 717/2/6 724/2/6
f 719/2/6 720/2/6 726/2/6
f 726/2/6 720/2/6 727/2/6
f 722/2/6 723/2/6 728/2/6
f 728/2/6 723/2/6 729/2/6
f 724/2/6 725/2/6 730/2/6
f 730/2/6 725/2/6 731/2/6
f 729/2/6 730/2/6 732/2/6
f 732/2/6 730/2/6 733/2/6
f 734/2/6 735/2/6 736/2/6
f 736/2/6 735/2/6 737/2/6
f 734/2/6 736/2/6 738/2/6
f 737/2/6 735/2/6 739/2/6
f 734/2/6 738/2/6 742/2/6
f 738/2/6 739/2/6 742/2/6
f 739/2/6 735/2/6 743/2/6
f 742/2/6 739/2/6 743/2/6
f 740/2/6 741/2/6 745/2/6
f 745/2/6 741/2/6 746/2/6
f 744/2/6 745/2/6 748/2/6
f 748/2/6 745/2/6 749/2/6
f 746/2/6 747/2/6 750/2/6
f 750/2/6 747/2/6 751/2/6
f 749/2/6 750/2/6 752/2/6
f 752/2/6 750/2/6 753/2/6
f 754/2/6 755/2/6 756/2/6
f 756/2/6 755/2/6 757/2/6
f 754/2/6 756/2/6 758/2/6
f 757/2/6 755/2/6 759/2/6
f 754/2/6 758/2/6 760/2/6
f 758/2/6 759/2/6 760/2/6
f 759/2/6 755/2/6 761/2/6
f 760/2/6 759/2/6 761/2/6
f 762/2/6 763/2/6 764/2/6
f 764/2/6 763/2/6 765/2/6
f 766/2/6 767/2/6 768/2/6
f 768/2/6 767/2/6 769/2/6
f 766/2/6 768/2/6 770/2/6
f 769/2/6 767/2/6 771/2/6
f 766/2/6 770/2/6 772/2/6
f 770/2/6 771/2/6 772/2/6
f 771/2/6 767/2/6 773/2/6
f 772/2/6 771/2/6 773/2/6
f 774/2/6 775/2/6 776/2/6
f 776/2/6 775/2/6 777/2/6
f 778/2/6 779/2/6 780/2/6
f 780/2/6 779/2/6 781/2/6
